<?xml version="1.0" encoding="UTF-8"?>
<!DOCTYPE svg PUBLIC "-//W3C//DTD SVG 1.1//EN" "http://www.w3.org/Graphics/SVG/1.1/DTD/svg11.dtd">
<svg xmlns="http://www.w3.org/2000/svg" version="1.1" width="500px" height="150px" style="shape-rendering:geometricPrecision; text-rendering:geometricPrecision; image-rendering:optimizeQuality; fill-rule:evenodd; clip-rule:evenodd" xmlns:xlink="http://www.w3.org/1999/xlink">
<g><path style="opacity:0.817" fill="#fefefe" d="M 149.5,38.5 C 152.187,38.3359 154.854,38.5026 157.5,39C 159.045,40.8219 159.712,42.9886 159.5,45.5C 158.627,54.957 155.127,63.2903 149,70.5C 148.374,74.8852 150.374,77.2185 155,77.5C 160.722,76.6685 163.055,73.3351 162,67.5C 163.333,66.8333 164.667,66.1667 166,65.5C 166.667,68.8333 167.333,72.1667 168,75.5C 170.66,78.9336 173.327,78.6002 176,74.5C 178.082,68.7535 182.249,65.7535 188.5,65.5C 190.067,65.477 191.4,65.977 192.5,67C 189.524,70.9417 189.857,74.4417 193.5,77.5C 194.748,76.9598 195.915,76.2931 197,75.5C 197.498,72.1832 197.665,68.8499 197.5,65.5C 199.167,65.5 200.833,65.5 202.5,65.5C 202.351,68.6074 202.851,71.6074 204,74.5C 204.739,70.3146 206.906,67.3146 210.5,65.5C 212.569,65.8242 212.902,66.6575 211.5,68C 212.42,71.4382 214.087,74.4382 216.5,77C 219.272,76.9476 221.606,75.781 223.5,73.5C 224.583,74.365 224.749,75.365 224,76.5C 216.781,83.7757 211.115,82.7757 207,73.5C 206.265,75.8713 205.432,78.2046 204.5,80.5C 201.743,81.8661 199.577,81.1995 198,78.5C 193.96,82.3503 189.96,82.3503 186,78.5C 182.667,81.1667 179.333,81.1667 176,78.5C 170.75,84.1731 166.084,83.8398 162,77.5C 155.525,84.0231 149.191,84.0231 143,77.5C 138.721,82.5136 134.055,83.1803 129,79.5C 124.396,82.1903 120.729,81.1903 118,76.5C 117.333,73.5 117.333,70.5 118,67.5C 122.869,64.527 124.369,65.8603 122.5,71.5C 123.124,73.754 124.457,75.4206 126.5,76.5C 127.321,73.5535 127.821,70.5535 128,67.5C 129.699,66.5939 131.533,66.2606 133.5,66.5C 131.934,71.3028 133.101,75.3028 137,78.5C 138.512,77.7433 139.846,76.7433 141,75.5C 139.54,68.3227 139.207,60.9893 140,53.5C 141.179,47.1211 144.345,42.1211 149.5,38.5 Z M 150.5,41.5 C 153.287,42.3775 154.62,44.3775 154.5,47.5C 153.404,55.1243 150.737,62.1243 146.5,68.5C 143.523,59.983 144.023,51.6497 148,43.5C 148.995,42.9341 149.828,42.2674 150.5,41.5 Z M 183.5,69.5 C 184.797,71.6934 184.797,74.0268 183.5,76.5C 181.587,74.3952 181.587,72.0618 183.5,69.5 Z"/></g>
<g><path style="opacity:0.858" fill="#fefefe" d="M 99.5,41.5 C 104.439,40.3519 107.939,42.0186 110,46.5C 112.53,61.4634 114.863,76.4634 117,91.5C 117.722,95.6719 119.222,99.5052 121.5,103C 120.038,105.201 118.038,105.867 115.5,105C 110.69,95.4548 108.356,85.2881 108.5,74.5C 99.8922,75.73 94.7255,72.0634 93,63.5C 91.9393,57.2757 92.6059,51.2757 95,45.5C 96.3968,43.9297 97.8968,42.5964 99.5,41.5 Z M 99.5,45.5 C 100.496,45.4142 101.329,45.7476 102,46.5C 105.59,54.1161 107.256,62.1161 107,70.5C 98.1442,64.0774 95.6442,55.7441 99.5,45.5 Z"/></g>
<g><path style="opacity:0.822" fill="#fefefe" d="M 229.5,42.5 C 231.199,42.3398 232.866,42.5065 234.5,43C 236.068,45.3041 237.235,47.8041 238,50.5C 244.261,41.9529 249.261,42.6195 253,52.5C 253.912,56.7946 254.579,61.1279 255,65.5C 257.121,60.0266 258.787,54.3599 260,48.5C 261.789,46.771 263.956,46.1043 266.5,46.5C 266.061,55.1988 267.561,63.5322 271,71.5C 273.531,75.0383 276.864,77.3716 281,78.5C 282.516,69.1542 288.016,64.8208 297.5,65.5C 296.779,68.8175 296.612,72.1508 297,75.5C 297.689,76.3567 298.522,77.0233 299.5,77.5C 301.808,76.3589 303.641,74.6922 305,72.5C 304.957,69.4368 304.623,66.4368 304,63.5C 305.699,62.5939 307.533,62.2606 309.5,62.5C 309.92,66.5577 312.253,68.5577 316.5,68.5C 314.774,70.2279 313.441,72.2279 312.5,74.5C 314.46,76.1563 316.46,77.823 318.5,79.5C 321.634,77.2455 323.8,74.2455 325,70.5C 326.786,67.6384 329.119,66.9717 332,68.5C 332.483,67.552 332.649,66.552 332.5,65.5C 339.367,64.3527 341.033,66.686 337.5,72.5C 338.617,78.3079 341.117,78.9746 345,74.5C 345.333,72.1667 345.667,69.8333 346,67.5C 347.441,66.7402 348.941,66.0736 350.5,65.5C 351.324,68.7848 351.824,72.1182 352,75.5C 353,76.5 354,77.5 355,78.5C 357.292,77.2101 359.292,75.5435 361,73.5C 360.667,70.8333 360.333,68.1667 360,65.5C 361.699,64.5939 363.533,64.2606 365.5,64.5C 365.384,67.9103 367.05,69.2436 370.5,68.5C 370.38,70.1986 370.046,71.8653 369.5,73.5C 370.622,77.5969 372.956,78.4302 376.5,76C 378.123,73.9205 379.623,71.7538 381,69.5C 382.555,67.4848 384.389,67.1515 386.5,68.5C 385.553,70.059 384.887,71.7257 384.5,73.5C 384.453,75.0004 385.119,76.0004 386.5,76.5C 387.489,72.8927 387.823,69.226 387.5,65.5C 389.833,65.5 392.167,65.5 394.5,65.5C 394.134,67.905 393.467,70.2383 392.5,72.5C 394.265,78.2239 396.931,78.7239 400.5,74C 401.635,73.2506 402.635,73.4173 403.5,74.5C 400.992,79.5245 396.992,81.6912 391.5,81C 390.667,80.1667 389.833,79.3333 389,78.5C 385.264,81.0893 381.598,81.0893 378,78.5C 374.662,81.3181 370.829,82.1515 366.5,81C 365.106,80.044 364.439,78.7106 364.5,77C 364.95,75.4504 365.117,73.9504 365,72.5C 362.127,77.5482 357.961,80.8815 352.5,82.5C 349.308,82.1389 347.141,80.4722 346,77.5C 342.202,81.7 337.869,82.3667 333,79.5C 329.471,80.6017 325.971,80.7683 322.5,80C 321.643,80.6891 320.977,81.5224 320.5,82.5C 324.137,88.5048 324.97,94.8381 323,101.5C 315.861,107.873 311.361,106.373 309.5,97C 309.921,92.3254 311.588,88.1587 314.5,84.5C 313.141,82.3078 311.308,80.6411 309,79.5C 308.07,76.15 308.903,73.3167 311.5,71C 310.5,70.3333 309.5,70.3333 308.5,71C 306.715,77.7977 302.382,81.131 295.5,81C 294.069,80.5348 292.903,79.7014 292,78.5C 291.5,79 291,79.5 290.5,80C 285.744,80.3444 281.077,81.1777 276.5,82.5C 271.706,82.0254 268.206,79.692 266,75.5C 263.248,70.1618 261.582,64.4951 261,58.5C 258.533,65.6914 256.367,73.0247 254.5,80.5C 253.264,81.2458 251.93,81.5792 250.5,81.5C 250.128,71.982 248.628,62.6487 246,53.5C 244.86,49.7473 243.026,49.0807 240.5,51.5C 239.937,52.9385 239.603,54.4385 239.5,56C 241.364,64.459 241.698,72.959 240.5,81.5C 239.28,82.7111 238.113,82.7111 237,81.5C 236.027,79.6079 235.36,77.6079 235,75.5C 235.163,66.5852 233.829,57.9185 231,49.5C 229.833,47.6667 228.333,46.1667 226.5,45C 227.571,44.1482 228.571,43.3149 229.5,42.5 Z M 289.5,68.5 C 290.8,71.0241 290.8,73.6908 289.5,76.5C 288.28,76.1131 287.613,75.2798 287.5,74C 288.077,72.0999 288.744,70.2666 289.5,68.5 Z M 330.5,69.5 C 331.306,70.9972 331.972,72.6639 332.5,74.5C 332.167,75.5 331.5,76.1667 330.5,76.5C 329.286,74.1413 329.286,71.808 330.5,69.5 Z M 316.5,88.5 C 318.25,91.1327 319.25,94.1327 319.5,97.5C 319.658,99.3186 318.991,100.652 317.5,101.5C 313.909,97.5037 313.575,93.1704 316.5,88.5 Z"/></g>
<g><path style="opacity:0.728" fill="#fefffe" d="M 162.5,57.5 C 166.676,56.8307 168.009,58.3307 166.5,62C 165.207,62.49 163.873,62.6567 162.5,62.5C 162.5,60.8333 162.5,59.1667 162.5,57.5 Z"/></g>
<g><path style="opacity:0.732" fill="#fefffe" d="M 347.5,57.5 C 350.91,57.3838 352.244,59.0504 351.5,62.5C 349.833,62.5 348.167,62.5 346.5,62.5C 346.366,60.7085 346.699,59.0418 347.5,57.5 Z"/></g>
</svg>
